<?xml version="1.0" encoding="UTF-8" standalone="no"?>
<svg
   xmlns:dc="http://purl.org/dc/elements/1.1/"
   xmlns:cc="http://creativecommons.org/ns#"
   xmlns:rdf="http://www.w3.org/1999/02/22-rdf-syntax-ns#"
   xmlns:svg="http://www.w3.org/2000/svg"
   xmlns="http://www.w3.org/2000/svg"
   id="svg8"
   version="1.1"
   viewBox="0 0 190.99731 190.38556"
   height="190.38556mm"
   width="190.99731mm">
  <defs
     id="defs2" />
  <metadata
     id="metadata5">
    <rdf:RDF>
      <cc:Work
         rdf:about="">
        <dc:format>image/svg+xml</dc:format>
        <dc:type
           rdf:resource="http://purl.org/dc/dcmitype/StillImage" />
        <dc:title></dc:title>
      </cc:Work>
    </rdf:RDF>
  </metadata>
  <g
     transform="translate(3.8049121,-116.89208)"
     id="layer1">
    <g
       id="g830">
      <g
         id="g855">
        <path
           id="path823"
           d="m 133.01562,116.90039 c -10.16345,4.15194 -13.00691,17.92297 -24.32268,20.16413 -10.920283,2.37903 -20.941641,-4.6628 -28.642013,-11.56915 -5.053298,-4.10326 -13.655965,-7.0051 -18.828271,-1.56373 -7.172105,8.59226 -1.943575,21.71152 -9.677734,30.07031 -6.105548,7.6131 -16.553173,8.52592 -25.607709,8.6604 -9.594679,0.48242 -20.6882741,2.735 -26.03291612,11.64038 -5.37688998,8.47607 -3.90371228,19.04345 -1.81971408,28.30035 1.31949167,8.44667 0.99815232,17.5034 4.7242192,25.33036 8.334176,10.57252 23.018759,11.37592 33.546667,18.71109 7.829382,6.69774 9.118464,18.12139 6.720703,27.61328 -1.060261,9.05442 6.248286,17.6962 15.240128,18.56385 12.576864,3.92762 28.430668,2.93273 37.576278,-7.599 5.976052,-8.15391 3.014184,-20.33609 10.855822,-27.39741 6.42422,-4.85998 15.81244,-2.85627 21.22202,2.57619 10.14417,6.58884 20.16076,15.84585 33.01759,15.63786 9.30401,-1.83879 13.33542,-12.62898 12.06497,-21.15438 1.54602,-18.77085 9.20387,-37.44311 4.93725,-56.38883 -4.32098,-10.37023 -17.63098,-14.71609 -19.41406,-26.46679 -1.22593,-8.58318 5.97161,-17.28068 1.22071,-25.52735 -7.52965,-9.57858 -18.42476,-16.6355 -23.38477,-28.10156 -0.89644,-0.88155 -2.09688,-1.59377 -3.39649,-1.5 z"
           style="opacity:1;fill:#ffaaaa;fill-opacity:1;stroke:none;stroke-width:0.52916664;stroke-linejoin:round;stroke-miterlimit:4;stroke-dasharray:none;stroke-dashoffset:0;stroke-opacity:1" />
        <path
           id="path823-3"
           d="m 177.36688,161.87155 c -10.62199,-2.77623 -21.15913,6.5348 -31.55658,1.53855 -10.16376,-4.64868 -13.95606,-16.29485 -15.97282,-26.4401 -1.58085,-6.31455 -6.72208,-13.79748 -14.12471,-12.54757 -10.89298,2.57084 -14.58134,16.20346 -25.783888,18.2503 -9.452234,2.4274 -18.358175,-3.11068 -25.682635,-8.43562 -7.965338,-5.37066 -18.191892,-10.22448 -27.810729,-6.3067 -9.387059,3.55497 -14.548695,12.89292 -18.435405,21.54894 -4.012207,7.54914 -9.703127,14.60187 -11.4182219,23.09913 0.3241891,13.45851 11.5900689,22.91168 15.6116199,35.09645 2.24513,10.05576 -3.577527,19.96829 -11.190707,26.12335 -6.2806823,6.60755 -5.6186119,17.90608 1.054436,23.99513 7.705205,10.68801 20.985415,19.40402 34.62086,16.46564 9.673107,-2.93776 14.612618,-14.46075 25.122689,-15.40511 8.055363,-0.0337 14.363907,7.20206 15.432298,14.79375 4.162336,11.35746 6.621761,24.77296 17.032223,32.32038 8.54659,4.11115 18.24567,-2.10241 22.34434,-9.68512 12.49895,-14.0894 29.82832,-24.43295 37.78197,-42.14972 2.76507,-10.88885 -5.27573,-22.35132 0.34795,-32.82188 4.16897,-7.60221 15.14542,-10.24198 16.29245,-19.68989 -0.2769,-12.18065 -4.75916,-24.36313 -1.84786,-36.51206 -0.18825,-1.2431 -0.72131,-2.53312 -1.81728,-3.23785 z"
           style="opacity:1;fill:#ff8080;fill-opacity:0.79527558;stroke:none;stroke-width:0.52916664;stroke-linejoin:round;stroke-miterlimit:4;stroke-dasharray:none;stroke-dashoffset:0;stroke-opacity:1" />
        <path
           id="path823-3-0"
           d="m 187.1321,245.8735 c -5.35103,-9.58648 -19.36491,-10.74301 -22.95862,-21.70452 -3.6827,-10.55226 2.095,-21.35194 8.01902,-29.83129 3.46176,-5.5126 5.30152,-14.40314 -0.72563,-18.87915 -9.39685,-6.07992 -21.78718,0.6974 -31.02027,-5.96869 -8.29583,-5.13966 -10.46592,-15.40011 -11.69485,-24.37187 -1.63966,-9.46584 -5.2178,-20.20542 -14.70438,-24.43342 -9.06432,-4.31195 -19.375849,-1.57114 -28.312627,1.61747 -8.224994,2.33169 -17.254074,3.10841 -24.572761,7.75403 -9.486577,9.55204 -8.507512,24.22596 -14.515118,35.56396 -5.701337,8.58217 -16.885119,11.24384 -26.597376,10.01204 -9.116184,0.0429 -16.8102857,8.3433 -16.5837172,17.37407 -2.3772014,12.95965 0.5284044,28.57664 12.0892232,36.38092 8.817012,4.94568 20.551376,0.53176 28.509523,7.4615 5.601518,5.78905 4.748309,15.35074 0.01021,21.37782 -5.313183,10.86677 -13.290376,21.92972 -11.528468,34.66695 2.950885,9.01322 14.149553,11.7096 22.458632,9.41706 18.820012,-0.73626 38.281572,4.60635 56.571949,-1.92103 9.77131,-5.54385 12.47498,-19.28185 23.92364,-22.47346 8.37183,-2.25532 17.87621,3.83711 25.48753,-1.87659 8.59728,-8.63319 14.28424,-20.30201 25.06602,-26.61278 0.76663,-0.9965 1.32838,-2.27429 1.07807,-3.55302 z"
           style="opacity:1;fill:#ffd5d5;fill-opacity:0.45931761;stroke:none;stroke-width:0.52916664;stroke-linejoin:round;stroke-miterlimit:4;stroke-dasharray:none;stroke-dashoffset:0;stroke-opacity:1" />
        <flowRoot
           transform="scale(0.26458333)"
           style="font-style:normal;font-variant:normal;font-weight:normal;font-stretch:normal;font-size:85.33333588px;line-height:1.5;font-family:'Christmas Sparkle PERSONAL USE';-inkscape-font-specification:'Christmas Sparkle PERSONAL USE';text-align:center;letter-spacing:0px;word-spacing:0px;text-anchor:middle;fill:#000000;fill-opacity:1;stroke:none"
           id="flowRoot815"
           xml:space="preserve"><flowRegion
             style="font-size:85.33333588px"
             id="flowRegion817"><rect
               style="font-size:85.33333588px"
               y="731.09113"
               x="-191.42857"
               height="380"
               width="1071.4286"
               id="rect819" /></flowRegion><flowPara
             style="font-style:normal;font-variant:normal;font-weight:normal;font-stretch:normal;font-family:'Christmas Sparkle PERSONAL USE';-inkscape-font-specification:'Christmas Sparkle PERSONAL USE';fill:#2b0000"
             id="flowPara821">My amazing game</flowPara></flowRoot>      </g>
    </g>
  </g>
</svg>
